<?xml version="1.0" standalone="no"?>
<!DOCTYPE svg PUBLIC "-//W3C//DTD SVG 20010904//EN"
 "http://www.w3.org/TR/2001/REC-SVG-20010904/DTD/svg10.dtd">
<svg version="1.0" xmlns="http://www.w3.org/2000/svg"
 width="900.000000pt" height="900.000000pt" viewBox="0 0 900.000000 900.000000"
 preserveAspectRatio="xMidYMid meet">
<metadata>
Created by potrace 1.11, written by Peter Selinger 2001-2013
</metadata>
<g transform="translate(0.000000,900.000000) scale(0.100000,-0.100000)"
fill="#000000" stroke="none">
<path d="M1920 7259 c-391 -44 -748 -217 -1030 -499 -152 -152 -238 -270 -330
-455 -114 -229 -161 -404 -185 -694 -13 -158 -47 -404 -272 -1946 -54 -371
-98 -709 -100 -771 -6 -137 16 -299 59 -433 97 -303 274 -501 568 -632 333
-149 633 -168 907 -59 230 92 313 176 780 790 198 261 457 601 574 755 118
154 229 304 248 333 66 103 187 185 322 217 96 22 1982 22 2078 0 127 -30 260
-117 312 -203 13 -20 84 -118 159 -217 150 -197 799 -1050 963 -1264 218 -286
413 -418 689 -466 329 -58 783 85 1024 322 204 201 326 538 311 862 -2 58 -55
450 -116 871 -200 1377 -250 1733 -261 1875 -19 254 -70 442 -181 663 -268
535 -772 885 -1374 952 -127 14 -246 12 -377 -5 -474 -63 -866 -283 -1163
-654 l-56 -71 -972 0 c-942 0 -973 1 -984 19 -6 10 -46 59 -87 109 -356 427
-949 664 -1506 601z m357 -624 c430 -70 798 -364 954 -763 69 -177 83 -259 83
-467 -1 -168 -3 -188 -32 -298 -58 -220 -167 -412 -327 -572 -482 -484 -1258
-486 -1745 -4 -200 198 -324 452 -359 734 -15 122 -14 198 5 324 59 404 306
745 674 931 226 114 497 156 747 115z m4844 -1 c722 -121 1183 -837 993 -1545
-63 -237 -218 -481 -397 -626 -257 -208 -551 -307 -861 -290 -315 17 -593 142
-816 366 -189 190 -298 406 -346 681 -21 124 -14 348 15 465 45 185 107 316
217 465 192 260 494 443 810 489 99 14 284 12 385 -5z m-2871 -1239 l0 -125
-160 0 -160 0 0 125 0 125 160 0 160 0 0 -125z m820 5 l0 -120 -160 0 -160 0
0 120 0 120 160 0 160 0 0 -120z"/>
<path d="M1978 6246 c-105 -30 -184 -100 -230 -202 -17 -38 -23 -74 -26 -160
l-4 -112 -112 -4 c-126 -4 -191 -27 -263 -91 -107 -97 -140 -294 -72 -433 29
-61 103 -132 169 -163 46 -21 73 -26 168 -29 l112 -4 0 -87 c0 -47 5 -106 11
-131 23 -102 118 -208 220 -246 67 -25 199 -23 271 5 71 28 147 98 184 171 24
48 28 69 32 171 l4 117 112 3 c102 4 117 7 178 37 77 37 128 90 167 172 22 48
26 68 26 150 -1 82 -5 103 -28 155 -65 141 -179 205 -363 205 l-92 0 -4 113
c-3 95 -8 121 -30 168 -58 126 -165 198 -304 205 -49 2 -97 -2 -126 -10z"/>
<path d="M6776 6495 c-72 -29 -119 -66 -168 -131 -54 -70 -73 -132 -73 -234 0
-74 4 -93 32 -152 40 -85 106 -151 191 -191 61 -29 76 -32 162 -32 81 0 103 4
152 27 145 67 232 204 231 363 -2 160 -104 302 -258 356 -80 28 -193 26 -269
-6z m239 -102 c142 -48 216 -230 151 -368 -49 -106 -168 -176 -275 -161 -231
31 -326 296 -167 464 72 77 184 102 291 65z"/>
<path d="M6100 5787 c-117 -34 -202 -103 -252 -205 -29 -57 -33 -79 -36 -157
-3 -73 0 -100 17 -145 31 -80 83 -146 153 -191 77 -49 124 -63 218 -62 111 1
178 29 261 112 88 88 113 150 113 277 0 82 -3 98 -32 157 -42 85 -129 167
-209 197 -72 27 -173 34 -233 17z m182 -119 c52 -16 131 -87 158 -144 30 -62
30 -153 1 -220 -79 -178 -303 -221 -439 -85 -133 134 -98 351 70 435 58 29
142 35 210 14z"/>
<path d="M7562 5789 c-109 -21 -215 -107 -269 -218 -25 -50 -28 -67 -28 -161
0 -95 3 -110 28 -163 77 -157 248 -246 415 -217 84 14 133 40 203 107 84 80
113 150 114 273 0 86 -3 101 -32 162 -79 168 -249 253 -431 217z m138 -115
c23 -5 28 -9 18 -16 -8 -6 -4 -7 12 -3 19 4 37 -2 68 -24 69 -50 112 -135 112
-219 0 -52 -19 -124 -31 -116 -5 3 -6 -1 -4 -8 8 -19 -82 -111 -101 -104 -8 3
-13 2 -10 -3 10 -16 -59 -36 -124 -36 -221 2 -340 254 -204 432 60 78 164 116
264 97z"/>
<path d="M7464 5598 l-19 -23 23 19 c21 18 27 26 19 26 -2 0 -12 -10 -23 -22z"/>
<path d="M7580 5510 c-8 -5 -10 -10 -5 -10 6 0 17 5 25 10 8 5 11 10 5 10 -5
0 -17 -5 -25 -10z"/>
<path d="M7736 5468 c3 -5 10 -6 15 -3 13 9 11 12 -6 12 -8 0 -12 -4 -9 -9z"/>
<path d="M7714 5328 l-19 -23 23 19 c21 18 27 26 19 26 -2 0 -12 -10 -23 -22z"/>
<path d="M7564 5321 c0 -11 5 -17 13 -14 10 4 11 9 2 19 -15 18 -15 18 -15 -5z"/>
<path d="M6809 5057 c-58 -17 -139 -68 -180 -115 -18 -20 -46 -66 -63 -102
-27 -58 -31 -75 -31 -156 0 -84 2 -95 38 -166 43 -87 98 -142 186 -185 50 -25
67 -28 156 -28 91 0 106 3 165 31 158 75 245 238 218 409 -19 123 -108 240
-222 291 -72 33 -192 42 -267 21z m192 -114 c106 -34 189 -148 189 -259 0
-154 -151 -290 -299 -270 -71 10 -147 51 -186 103 -46 60 -58 101 -53 187 3
60 8 80 36 123 37 57 90 98 154 118 59 19 96 18 159 -2z"/>
</g>
</svg>
